# xmcd
#
# Track frame offsets: 
#        300
#        19051
#        33394
#        60556
#        80159
#        97341
#        115128
#        133368
#        158708
#        178374
#        198083
#        210917
#
# Disc length: 3182 seconds
#
# Revision: 0
# Processed by: cddbd v1.5.2PL0 Copyright (c) Steve Scherf et al.
# Submitted via: ExactAudioCopy v1.0b1
#
DISCID=aa0c6a0c
DTITLE=Aynsley Lister - Equilibrium
DYEAR=2009
DGENRE=Blues Rock
TTITLE0=Soul
TTITLE1=Time's Up
TTITLE2=What's It All About
TTITLE3=Forever
TTITLE4=Crazy
TTITLE5=Big Sleep
TTITLE6=Running On Empty
TTITLE7=Superficial
TTITLE8=Early Morning Dew
TTITLE9=Running Out On Me
TTITLE10=Sugar Low
TTITLE11=Hurricane
EXTD=
EXTT0=
EXTT1=
EXTT2=
EXTT3=
EXTT4=
EXTT5=
EXTT6=
EXTT7=
EXTT8=
EXTT9=
EXTT10=
EXTT11=
PLAYORDER=
